<?xml version="1.0" encoding="UTF-8" standalone="no"?>
<!-- Created with Inkscape (http://www.inkscape.org/) -->

<svg
   width="720"
   height="640"
   viewBox="0 0 190.5 169.33332"
   version="1.1"
   id="svg5"
   xml:space="preserve"
   inkscape:version="1.2.1 (9c6d41e410, 2022-07-14)"
   sodipodi:docname="cadre_profil.svg"
   xmlns:inkscape="http://www.inkscape.org/namespaces/inkscape"
   xmlns:sodipodi="http://sodipodi.sourceforge.net/DTD/sodipodi-0.dtd"
   xmlns="http://www.w3.org/2000/svg"
   xmlns:svg="http://www.w3.org/2000/svg"><sodipodi:namedview
     id="namedview7"
     pagecolor="#505050"
     bordercolor="#ffffff"
     borderopacity="1"
     inkscape:showpageshadow="0"
     inkscape:pageopacity="0"
     inkscape:pagecheckerboard="1"
     inkscape:deskcolor="#505050"
     inkscape:document-units="px"
     showgrid="true"
     inkscape:zoom="1.4324916"
     inkscape:cx="339.26901"
     inkscape:cy="574.17441"
     inkscape:window-width="1920"
     inkscape:window-height="991"
     inkscape:window-x="-9"
     inkscape:window-y="-9"
     inkscape:window-maximized="1"
     inkscape:current-layer="layer1"><inkscape:grid
       type="xygrid"
       id="grid2188"
       originx="0"
       originy="0" /></sodipodi:namedview><defs
     id="defs2" /><g
     inkscape:label="Calque 1"
     inkscape:groupmode="layer"
     id="layer1"><path
       id="path6163"
       style="fill:#000000;stroke-width:0.265463"
       d="M 10.043831 0 L 10.042281 0.99528805 C 10.039081 2.7852879 8.7415899 4.1115908 5.4048378 5.7350502 C 4.3867327 6.2303986 3.416377 6.6352536 3.2483804 6.6352536 C 2.8443337 6.6352536 2.7706587 7.2125224 1.9306314 16.986559 L 1.2123291 25.346772 L 2.0474202 28.645796 L 2.883028 31.944819 L 2.1492227 32.715314 C 1.745454 33.138853 1.0799698 33.684032 0.67076006 33.927127 C 0.12148855 34.253426 -0.032381867 34.508127 0.082682288 34.900711 C 1.2063634 38.734565 2.3259785 49.703337 3.5377684 68.742055 C 4.086213 77.358795 4.0819618 99.215771 3.530017 106.80278 C 2.6669731 118.66607 1.5065914 128.65008 0.50591225 132.83013 L 0 134.94421 L 0.5472534 135.32713 C 0.84826005 135.53788 1.4940481 136.06138 1.9828246 136.49037 C 2.9829699 137.36819 2.9897917 137.01785 1.8949747 141.4911 L 1.2066446 144.30333 L 1.9094441 152.37261 C 2.8914227 163.64737 2.6614484 162.5466 4.1475503 163.09805 C 6.1696212 163.84841 8.0626552 165.01943 9.0873003 166.15316 C 9.8498129 166.99685 10.043831 167.42696 10.043831 168.27241 L 10.043831 169.33333 L 95.107369 169.33333 L 180.17039 169.33333 L 180.35022 168.2073 C 180.61863 166.52941 182.67866 164.63493 185.47808 163.49079 L 187.62162 162.61436 L 187.77819 161.2625 C 187.86399 160.51914 188.24429 156.38897 188.62362 152.08373 L 189.3135 144.25527 L 188.46756 140.84773 L 187.62213 137.43915 L 188.21848 136.80456 C 188.54624 136.4558 189.21481 135.89924 189.70418 135.56691 C 190.2755 135.17893 190.53977 134.82002 190.44263 134.56439 C 190.13565 133.75695 189.2852 129.262 188.88252 126.31735 C 188.24651 121.66647 187.71111 116.26118 187.13689 108.68638 C 186.46157 99.777984 186.39424 77.858492 187.01235 68.210821 C 188.08105 51.530276 189.09782 40.920213 190.02612 36.759512 L 190.49999 34.636127 L 189.05099 33.304943 L 187.6025 31.973758 L 188.45826 28.523839 L 189.31402 25.074437 L 188.48565 15.934944 C 188.02995 10.908649 187.63058 6.7813521 187.59836 6.7628944 C 187.56616 6.7444364 187.00179 6.530657 186.34417 6.2874713 C 184.35217 5.5508461 181.80087 3.9039835 181.12744 2.9197183 C 180.77786 2.4088003 180.41961 1.5427 180.3311 0.99528805 L 180.17039 0 L 95.106853 0 L 10.043831 0 z M 20.867976 2.1208007 L 95.574524 2.1879801 L 170.28159 2.2561929 L 172.3502 3.1476114 C 180.04323 6.4644749 184.43958 12.285987 184.93392 19.808609 C 185.07517 21.958173 185.01932 22.484633 184.49674 23.917402 C 183.72111 26.043859 183.83364 28.000711 184.85073 30.078783 C 185.25493 30.904641 185.52077 31.790047 185.44139 32.046621 C 185.36199 32.303194 185.10176 34.125303 184.86313 36.095987 C 184.48046 39.25611 184.42197 44.770349 184.3722 82.808896 C 184.3165 125.37843 184.39038 130.32015 185.15252 135.44444 L 185.53957 138.04945 L 184.85073 139.40906 C 183.8609 141.36164 183.73965 143.35324 184.48124 145.47535 C 184.99001 146.93131 185.05005 147.49627 184.9055 149.46684 C 184.68351 152.49297 184.17305 154.41372 182.90717 156.99144 C 181.04807 160.77721 178.10711 163.42902 173.06953 165.86015 L 170.54721 167.07713 L 95.539384 167.13966 L 20.531563 167.20167 L 18.331697 166.29527 C 13.980065 164.50196 9.8020613 161.108 7.9090777 157.82964 C 6.6661719 155.6771 5.7864585 152.55768 5.6110268 149.67923 C 5.4768236 147.47722 5.5372058 146.88788 6.0575112 145.32497 C 6.7956293 143.10777 6.6831314 141.35467 5.6761391 139.36823 L 4.9805743 137.99519 L 5.3836505 135.28114 C 6.150678 130.11745 6.2246009 125.22128 6.1779172 82.808896 C 6.1314435 40.587854 6.0943838 38.595768 5.2477415 33.176785 C 4.9955939 31.562902 5.0235932 31.357192 5.6833738 29.995067 C 6.6517347 27.995873 6.7823767 26.038144 6.0812823 24.044526 C 4.8992106 20.683214 5.8708421 14.989026 8.2775306 11.173478 C 10.37149 7.8537309 14.210181 4.8335178 18.622118 3.0354735 L 20.867976 2.1208007 z M 12.444201 2.1233845 L 15.22646 2.1233845 C 16.756831 2.1233845 18.009236 2.1817333 18.009236 2.2530924 C 18.009236 2.3244513 17.070343 2.8549493 15.922542 3.4318317 C 11.832683 5.4873873 8.6891626 8.5754219 6.8528114 12.341882 C 5.7975059 14.506376 5.0103366 17.239361 5.003312 18.762162 C 4.997132 20.095477 4.52143 20.045315 4.3180825 18.689815 C 4.1523468 17.58502 4.5388497 11.148918 4.8906574 9.1565467 C 5.0119312 8.4697541 5.3120333 8.2258611 7.072953 7.3809445 C 9.3423073 6.2920729 11.0948 4.7675081 11.907283 3.1755166 L 12.444201 2.1233845 z M 175.32107 2.1233845 L 178.10333 2.1233845 L 178.6511 3.1956704 C 179.62868 5.1111526 181.91589 6.8493709 185.49358 8.3943193 C 185.71603 8.4903792 186.39321 17.841092 186.23772 18.669661 C 186.00977 19.884265 185.54836 19.940641 185.54836 18.753893 C 185.54836 16.593076 184.04155 12.397848 182.39506 9.9751013 C 180.78784 7.6101492 177.44364 4.8533843 174.19763 3.2173745 C 173.28495 2.7573649 172.5383 2.323462 172.5383 2.2525756 C 172.5383 2.1816887 173.7907 2.1233845 175.32107 2.1233845 z M 3.8070026 21.36562 L 4.5661294 23.432161 C 5.188775 25.126542 5.305296 25.807403 5.2157021 27.213842 C 5.0464401 29.871059 4.6664541 29.804337 3.9951048 27.001452 C 3.5357925 25.083821 3.4510534 24.204155 3.6070148 22.958288 L 3.8070026 21.36562 z M 186.73691 21.36562 L 186.91468 23.223388 C 187.05026 24.641803 186.97743 25.489534 186.60669 26.806631 C 186.33961 27.755478 186.07073 28.770871 186.00931 29.062824 C 185.91131 29.528903 185.8605 29.502392 185.59125 28.84785 C 184.89593 27.157601 184.94397 26.227102 185.85583 23.754621 L 186.73691 21.36562 z M 187.55599 33.643423 L 188.39418 34.34829 C 189.12382 34.962003 189.2005 35.146018 188.99052 35.773526 C 188.57614 37.011906 187.73198 42.393375 187.14981 47.508726 C 186.84248 50.209292 186.54 52.597964 186.47698 52.816929 C 186.41378 53.035894 186.41597 50.5281 186.48267 47.243626 C 186.60028 41.43089 186.97716 35.947768 187.36478 34.405134 L 187.55599 33.643423 z M 2.9440062 33.718871 C 2.9614212 33.716571 2.97399 33.718804 2.98173 33.726622 C 3.249716 33.996456 3.6793104 38.302358 3.9496296 43.431456 C 4.1101449 46.477141 4.2025071 49.924157 4.1553018 51.09197 L 4.0700356 53.215354 L 3.7212197 50.162828 C 3.1953873 45.555616 2.1227968 38.278713 1.7177245 36.573994 L 1.3575398 35.060908 L 2.113566 34.337438 C 2.4773044 33.989089 2.8221022 33.735161 2.9440062 33.718871 z M 4.1134438 116.34845 C 4.1162038 116.34751 4.1191021 116.34745 4.1217121 116.34845 C 4.4452517 116.47339 3.7461553 131.46881 3.2499307 134.63054 C 3.0682632 135.78805 2.9772498 135.81583 2.050004 134.99899 L 1.3575398 134.38972 L 1.9678385 131.49068 C 2.3035427 129.89651 2.8909178 125.90541 3.2726683 122.62093 C 3.6544179 119.33648 4.0209371 116.52957 4.0870889 116.38359 C 4.0965389 116.36269 4.1051579 116.35125 4.1134438 116.34845 z M 186.4036 116.5164 C 186.4825 116.5164 186.69159 117.91933 186.86817 119.63455 C 187.25913 123.43241 188.35999 130.976 188.81431 132.97172 C 189.14131 134.40821 189.13511 134.4413 188.43759 135.02896 C 188.04773 135.3574 187.66669 135.62582 187.59113 135.62582 C 187.414 135.62582 187.19772 134.26044 186.87696 131.11396 C 186.57319 128.13411 186.19647 116.5164 186.4036 116.5164 z M 4.7273598 140.1041 C 4.7946378 140.0961 4.8556872 140.20876 4.9314817 140.40331 C 5.5729663 142.04979 5.5586774 143.01084 4.8612018 145.08778 C 3.8655754 148.05259 3.7733768 148.12419 3.5940957 146.07015 C 3.4683231 144.62914 3.5635903 143.78351 4.054016 141.99598 C 4.399665 140.73612 4.5660453 140.19707 4.698421 140.11496 C 4.708341 140.10896 4.7177488 140.105 4.7273598 140.1041 z M 185.76643 140.13924 C 185.86563 140.13997 186.20897 141.12574 186.52969 142.32929 C 187.00193 144.10168 187.0745 144.84495 186.90951 146.24223 C 186.68001 148.18592 186.66368 148.16994 185.55818 144.88004 C 185.02871 143.30437 184.99991 142.96306 185.27706 141.62856 C 185.44735 140.80855 185.66729 140.13844 185.76643 140.13924 z M 185.74783 149.53919 C 185.76433 149.53619 185.78107 149.53978 185.79847 149.55056 C 186.28793 149.85295 186.40351 152.14687 186.10285 155.606 C 185.59459 161.45359 185.80656 160.92423 183.54279 161.99889 C 181.2878 163.06937 179.07161 165.00221 178.59788 166.31181 L 178.27283 167.20994 L 175.33916 167.20271 L 172.40549 167.19599 L 174.26429 166.20484 C 178.68258 163.84888 181.59529 161.13937 183.36399 157.74024 C 184.54467 155.4712 185.53719 152.13249 185.54422 150.40683 C 185.54622 149.91322 185.63275 149.56156 185.74783 149.53919 z M 4.5552773 149.7154 C 4.5694683 149.7134 4.5840651 149.72077 4.5997191 149.73607 C 4.6533 149.78967 4.939336 151.02609 5.2353391 152.48371 C 6.4658546 158.54315 9.8900171 162.79577 16.283243 166.20484 L 18.142044 167.19599 L 15.184086 167.20322 C 12.287486 167.21022 12.222219 167.19711 12.066963 166.57846 C 11.744064 165.29241 9.5630335 163.27914 7.252787 162.1348 C 5.7204673 161.37577 4.999801 160.86544 4.9097776 160.47495 C 4.3710179 158.13812 4.1153459 149.78022 4.5552773 149.7154 z " /></g></svg>
