<?xml version="1.0" encoding="UTF-8" standalone="no"?>
<!-- Created with Inkscape (http://www.inkscape.org/) -->

<svg
   width="380"
   height="360"
   viewBox="0 0 100.54166 95.249991"
   version="1.1"
   id="svg5"
   xml:space="preserve"
   inkscape:version="1.2.1 (9c6d41e410, 2022-07-14)"
   sodipodi:docname="Ombre_A.svg"
   xmlns:inkscape="http://www.inkscape.org/namespaces/inkscape"
   xmlns:sodipodi="http://sodipodi.sourceforge.net/DTD/sodipodi-0.dtd"
   xmlns="http://www.w3.org/2000/svg"
   xmlns:svg="http://www.w3.org/2000/svg"><sodipodi:namedview
     id="namedview7"
     pagecolor="#505050"
     bordercolor="#ffffff"
     borderopacity="1"
     inkscape:showpageshadow="0"
     inkscape:pageopacity="0"
     inkscape:pagecheckerboard="1"
     inkscape:deskcolor="#505050"
     inkscape:document-units="px"
     showgrid="true"
     inkscape:zoom="0.71624578"
     inkscape:cx="-1.3961688"
     inkscape:cy="184.99236"
     inkscape:window-width="1920"
     inkscape:window-height="991"
     inkscape:window-x="-9"
     inkscape:window-y="-9"
     inkscape:window-maximized="1"
     inkscape:current-layer="layer1"><inkscape:grid
       type="xygrid"
       id="grid2188"
       originx="0"
       originy="0" /></sodipodi:namedview><defs
     id="defs2" /><g
     inkscape:label="Calque 1"
     inkscape:groupmode="layer"
     id="layer1"><path
       id="path27362"
       style="fill:#e6e6e6;fill-opacity:1;stroke-width:0.265636"
       d="m 60.830391,0.00310059 c -0.0551,-0.00415238 -0.105701,-0.00414396 -0.151412,5.1676e-4 -0.121969,0.01262238 -0.214367,0.05587205 -0.29714,0.12402343 -0.221466,0.18234962 -0.366207,0.57963281 -0.322461,0.88315012 0.09607,0.6665288 2.018319,1.4832329 5.318538,2.2592935 l 2.227771,0.5239989 -2.66702,-0.055811 C 62.399727,3.6853535 62.188732,3.6356256 60.538419,2.7021604 57.430443,0.94419597 55.011192,0.29764897 51.07078,0.17053221 46.40251,0.01993451 43.13943,0.78543129 39.7061,2.8365191 38.326459,3.6607235 38.086215,3.7136715 35.588522,3.7480913 l -2.653067,0.03669 2.013313,-0.4723226 C 39.713508,2.1949524 41.407436,1.1552083 40.150001,0.11988931 39.840634,-0.13483517 39.331883,-0.00477955 37.593051,0.77411289 32.48168,3.0637053 28.010318,3.8106713 19.366775,3.8183713 l -6.433199,0.00568 -1.046447,1.4495238 -1.046965,1.4495238 -1.6200557,0.00155 C 7.6646881,6.7263583 7.5739622,6.7639353 6.9566807,7.6630975 6.0945733,8.9188931 3.9408652,10.844334 1.7833535,12.287621 L 0.01601969,13.469978 0.00826823,15.578376 0,17.686774 1.5332396,16.214513 C 5.0616021,12.826631 9.3254065,10.015862 14.001211,7.995377 L 16.935399,6.7277542 14.7345,6.7251703 c -1.21012,-0.0012 -2.197205,-0.091361 -2.194181,-0.2005045 0.003,-0.1091408 0.213204,-0.4599395 0.466638,-0.7797973 0.453465,-0.5723278 0.577793,-0.5821129 7.795389,-0.6144327 4.03371,-0.01805 9.186663,-0.024453 11.45098,-0.013953 l 4.117061,0.01912 -0.766878,0.79375 -0.766879,0.7937499 h -7.088972 c -8.044386,0 -8.808023,0.1235997 -13.549559,2.1977985 C 9.6188963,10.92409 6.1145541,13.216563 1.9337319,16.94315 L 0,18.666559 0.00516764,20.16931 h -5.1676e-4 l 0.00516764,1.50275 0.97358391,-1.190624 C 3.7154878,17.143457 7.5274241,14.176775 10.845332,12.806452 14.480447,11.305115 15.28698,11.23067 27.902687,11.22567 c 9.894576,-0.004 11.54726,-0.06011 11.832869,-0.401525 0.433629,-0.518354 1.040217,-0.503431 1.646411,0.04082 0.557136,0.500214 0.638727,1.422755 0.167431,1.890324 -0.390982,0.387891 -1.606143,0.417146 -1.97869,0.04754 -0.172585,-0.171218 -2.309367,-0.243867 -5.836853,-0.198437 l -5.564517,0.07183 2.158524,1.616438 c 10.009203,7.49615 23.160376,8.753904 34.343637,3.284554 1.760168,-0.860837 4.205797,-2.315468 5.434294,-3.232877 l 2.233972,-1.668115 -5.300452,-0.07906 c -3.683147,-0.05485 -5.613395,0.02105 -6.324678,0.248563 -0.722026,0.230957 -1.153986,0.2463 -1.466577,0.05219 -0.672833,-0.417795 -0.691402,-1.492259 -0.03566,-2.08101 0.542123,-0.486736 0.601005,-0.488842 1.367875,-0.05219 0.723856,0.412145 1.900484,0.456753 12.18065,0.460953 12.388252,0.005 13.357658,0.09224 16.762283,1.512053 3.28936,1.37174 6.304911,3.657915 9.488826,7.193359 l 1.529628,1.698604 v -1.409733 c 0,-1.340937 -0.0619,-1.467715 -1.266595,-2.584855 C 93.906591,12.65669 88.568308,9.4257111 82.60322,7.5442417 L 80.000278,6.7231033 h -7.147883 -7.147367 l -0.766878,-0.7937499 -0.765845,-0.79375 4.117061,-0.01912 c 2.264322,-0.0105 7.404283,-0.0023 11.422558,0.018087 7.160453,0.03633 7.316052,0.048602 7.792288,0.6144327 0.267253,0.3175338 0.489706,0.6665224 0.494544,0.7756632 0.0048,0.1091368 -0.981483,0.198757 -2.191597,0.199471 l -2.200383,0.00155 2.583305,1.1554849 c 5.237304,2.3431788 8.667656,4.5373928 12.336197,7.8909908 l 2.015382,1.842781 v -2.110465 c 0,-1.587255 -0.0942,-2.146337 -0.38137,-2.255676 -1.51313,-0.57605 -7.085875,-5.5167021 -7.085875,-6.2823035 0,-0.1337938 -0.765386,-0.243398 -1.701188,-0.243396 H 89.672039 L 88.564096,5.2678951 87.45667,3.8126869 80.99815,3.8116533 C 72.493949,3.8105533 67.978485,3.0649129 63.128441,0.86092929 61.861847,0.28535632 61.217385,0.03226675 60.830391,0.00310059 Z M 50.405705,0.7363891 c 0.734912,0.0047 1.461086,0.0521201 2.172477,0.14262694 3.797949,0.48321396 8.495164,2.41024486 9.469188,3.88503386 0.231015,0.3497864 0.624991,0.6361368 0.875916,0.6361368 0.250924,0 0.738639,0.2976567 1.083138,0.6614583 l 0.625801,0.6614583 h -0.724503 c -0.426363,0 -1.295997,-0.4236213 -2.113049,-1.0293945 C 58.464885,3.2249638 54.57923,1.9451337 50.405188,1.9430337 45.787845,1.9406337 42.297482,3.0635532 38.748536,5.6937088 37.931767,6.299021 37.061192,6.7231033 36.63497,6.7231033 H 35.910467 L 36.536785,6.061645 c 0.344504,-0.3638016 0.831698,-0.6614583 1.082621,-0.6614583 0.250925,0 0.644899,-0.2863504 0.875916,-0.6361368 0.553254,-0.8376874 2.876705,-2.1375406 5.254459,-2.939872 2.170363,-0.7323536 4.451188,-1.10176578 6.655924,-1.0877888 z m -24.13651,11.8287339 -4.800223,0.0047 c -2.640249,0.0026 -5.281139,0.103359 -5.867858,0.223759 -0.892255,0.183095 -0.679297,0.223631 1.299662,0.249081 2.739019,0.03522 6.952072,0.619712 9.63507,1.336352 1.026759,0.274255 1.968177,0.509309 2.092378,0.522449 0.124203,0.01314 -0.35567,-0.507453 -1.066601,-1.156519 z m 48.004818,0.0026 -1.333768,1.21388 c -0.733404,0.66763 -1.12193,1.141842 -0.863513,1.053682 2.507474,-0.855441 8.212804,-1.746729 11.484052,-1.793689 4.270321,-0.06129 0.694374,-0.434336 -4.353222,-0.454236 z m 10.34097,1.621607 c -0.688,-0.0069 -1.421813,0.0041 -2.2071,0.03049 -5.777881,0.194123 -11.494133,1.506824 -14.724165,3.381705 -5.673583,3.293251 -12.752232,5.009069 -19.162653,4.645194 -5.829872,-0.330923 -10.295548,-1.684356 -16.267222,-4.930448 -1.58423,-0.861157 -4.573946,-1.793455 -8.251176,-2.572452 -1.699098,-0.359943 -3.435799,-0.480074 -6.933943,-0.480074 -4.070198,0 -4.906862,0.0747 -6.538101,0.583943 -2.2987797,0.717643 -3.8869556,1.740285 -6.2368286,4.015776 L 2.486153,20.613727 2.1755776,22.862685 C 1.7660591,25.833153 1.7843804,26.979899 2.288749,29.995066 L 2.7109454,32.519976 1.3559895,37.547059 0,42.574142 v 5.050854 5.050854 l 1.3559895,5.027083 1.3549559,5.027083 -0.4221964,2.52491 c -0.5043686,3.015167 -0.5226899,4.161913 -0.1131714,7.132381 l 0.3105754,2.248958 1.8076414,1.750281 c 2.349873,2.27549 3.9380489,3.298133 6.2368286,4.015775 1.631239,0.509242 2.467903,0.583944 6.538101,0.583944 3.498144,0 5.234845,-0.120132 6.933943,-0.480074 3.67723,-0.778998 6.666946,-1.711296 8.251176,-2.572453 5.971674,-3.246092 10.43735,-4.599524 16.267222,-4.930448 6.410421,-0.363875 13.48907,1.351943 19.162653,4.645194 3.230032,1.874881 8.946284,3.187583 14.724165,3.381706 0.785287,0.02639 1.5191,0.03739 2.2071,0.03049 h 0.001 c 4.817346,-0.04837 7.418066,-0.957902 10.162169,-3.364136 2.738717,-2.401509 3.292445,-3.221069 3.542936,-5.24309 0.311724,-2.516313 0.207652,-6.004894 -0.234611,-7.872904 l -0.375687,-1.588533 1.410766,-5.158342 1.411804,-5.157824 5.2e-4,-5.050854 -5.2e-4,-5.050854 -1.411804,-5.157824 -1.410766,-5.158341 0.375687,-1.588534 c 0.442263,-1.86801 0.546335,-5.356591 0.234611,-7.872904 -0.250491,-2.02202 -0.804219,-2.84158 -3.542936,-5.24309 -2.744103,-2.406234 -5.344823,-3.315766 -10.162169,-3.364135 z M 1.1549682,22.333002 C 1.1302728,22.3332 0.85981259,22.734305 0.55448807,23.22442 0.0260794,24.072859 5.2393112e-4,24.462582 0.02118734,31.360357 L 0.0434082,38.605392 0.93586011,35.474834 1.8288288,32.344276 1.4283365,30.447751 C 1.163492,29.19315 1.0572941,27.49876 1.1141438,25.441856 c 0.046972,-1.710062 0.065519,-3.109053 0.040824,-3.108854 z m 98.1867638,0.07028 0.0894,2.941422 c 0.06016,1.975002 -0.04808,3.588181 -0.328662,4.908227 l -0.417546,1.966288 0.86248,3.282487 0.862476,3.283004 0.0708,-7.307564 c 0.07,-7.216566 0.0632,-7.31829 -0.534334,-8.190714 z m 1.068148,34.062001 -0.862476,3.283003 -0.86248,3.282487 0.417546,1.966288 c 0.280587,1.320047 0.388822,2.933225 0.328662,4.908227 l -0.0894,2.941422 0.604614,-0.88315 c 0.597544,-0.872424 0.604334,-0.974148 0.534334,-8.190714 z M 0.0434082,56.6446 0.02118734,63.889635 c -0.0206634089,6.897775 0.0048921,7.287498 0.53330073,8.135937 0.30532452,0.490115 0.57578473,0.89122 0.60048013,0.891418 0.024695,1.99e-4 0.00615,-1.398791 -0.040824,-3.108854 -0.05685,-2.056904 0.049348,-3.751293 0.3141927,-5.005895 L 1.8288288,62.905716 0.93586011,59.775158 Z m -0.03358968,16.933332 -0.00516764,1.50275 h 5.1676e-4 L 0,76.583433 1.9337319,78.306842 c 4.1808222,3.726587 7.6851644,6.019043 12.2643671,8.022248 4.741536,2.074199 5.505173,2.197799 13.549559,2.197799 h 7.088972 l 0.766879,0.79375 0.766878,0.79375 -4.117061,0.01912 c -2.264317,0.0105 -7.41727,0.0041 -11.45098,-0.01395 -7.217596,-0.03232 -7.341924,-0.04211 -7.795389,-0.614432 -0.253434,-0.319858 -0.463638,-0.670657 -0.466638,-0.779798 -0.003,-0.109143 0.984061,-0.199304 2.194181,-0.200504 l 2.200899,-0.0026 -2.934188,-1.267623 C 9.3254065,85.23413 5.0616021,82.423361 1.5332396,79.035479 L 0,77.563218 l 0.00826823,2.108398 0.00775146,2.108398 1.76733381,1.182357 c 2.1575117,1.443288 4.3112198,3.368728 5.1733272,4.624524 0.6172815,0.899162 0.7080074,0.936711 2.2634276,0.938444 l 1.6200557,0.0015 1.046965,1.449524 1.046447,1.449524 6.433199,0.0057 c 8.643543,0.0077 13.114905,0.754667 18.226276,3.044258 1.738832,0.778893 2.247583,0.908949 2.55695,0.654224 1.257435,-1.035319 -0.436493,-2.075063 -5.201233,-3.19257 l -2.013313,-0.472322 2.653067,0.03669 c 2.497693,0.03442 2.737937,0.08737 4.117578,0.911572 3.43333,2.051088 6.69641,2.816585 11.36468,2.665987 3.940412,-0.127117 6.359663,-0.773664 9.467639,-2.531628 1.650313,-0.933465 1.861308,-0.983193 4.400248,-1.036113 l 2.66702,-0.05581 -2.227771,0.523999 c -3.300219,0.77606 -5.222468,1.592765 -5.318538,2.259293 -0.04375,0.303518 0.100995,0.700802 0.322461,0.88315 0.08277,0.06815 0.175171,0.111404 0.29714,0.124024 0.04571,0.0046 0.09631,0.0047 0.151412,5.17e-4 0.386994,-0.02917 1.031456,-0.282257 2.29805,-0.857829 4.850044,-2.203984 9.365508,-2.949624 17.869709,-2.950724 l 6.45852,-0.001 1.107426,-1.455208 1.107943,-1.455208 h 1.701188 c 0.935802,2e-6 1.701188,-0.109602 1.701188,-0.243396 0,-0.765602 5.572745,-5.706254 7.085875,-6.282303 0.28718,-0.109339 0.38137,-0.668422 0.38137,-2.255676 v -2.110466 l -2.015382,1.842782 c -3.668541,3.353597 -7.098893,5.547812 -12.336197,7.89099 l -2.583305,1.155485 2.200383,0.0016 c 1.210114,7.14e-4 2.196397,0.09033 2.191597,0.199471 -0.0048,0.109141 -0.227291,0.45813 -0.494544,0.775664 -0.476236,0.565832 -0.631835,0.578102 -7.792288,0.614432 -4.018275,0.02039 -9.158236,0.02859 -11.422558,0.01809 l -4.117061,-0.01912 0.765845,-0.79375 0.766878,-0.79375 h 7.147367 7.147883 L 82.60322,87.70575 c 5.965088,-1.881469 11.303371,-5.112448 16.671849,-10.090856 1.204711,-1.11714 1.266591,-1.243918 1.266591,-2.584855 v -1.409733 l -1.529624,1.698605 c -3.183915,3.535443 -6.199466,5.821618 -9.488826,7.193358 -3.404625,1.419812 -4.374031,1.507053 -16.762283,1.512053 -10.280166,0.0042 -11.456794,0.04881 -12.18065,0.460953 -0.76687,0.436649 -0.825752,0.434543 -1.367875,-0.05219 -0.655746,-0.588751 -0.637177,-1.663215 0.03566,-2.081009 0.312591,-0.194107 0.744551,-0.178764 1.466577,0.05219 0.711283,0.227513 2.641531,0.303413 6.324678,0.248563 l 5.300452,-0.07906 -2.233972,-1.668115 C 68.877296,79.98824 66.431667,78.533609 64.671499,77.672772 53.488238,72.203422 40.337065,73.461176 30.327862,80.957326 l -2.158524,1.616438 5.564517,0.07183 c 3.527486,0.04543 5.664268,-0.02722 5.836853,-0.198438 0.372547,-0.369603 1.587708,-0.340349 1.97869,0.04754 0.471296,0.467569 0.389705,1.390111 -0.167431,1.890324 -0.606194,0.544256 -1.212782,0.559178 -1.646411,0.04082 C 39.449947,84.084433 37.797263,84.028322 27.902687,84.024322 15.28698,84.019322 14.480447,83.944877 10.845332,82.44354 7.5274241,81.073217 3.7154878,78.106535 0.98340243,74.768557 Z M 28.628224,80.348577 c -0.124201,0.01314 -1.065619,0.248194 -2.092378,0.522449 -2.682998,0.71664 -6.896051,1.301133 -9.63507,1.336353 -1.978959,0.02545 -2.191917,0.06598 -1.299662,0.24908 0.586719,0.1204 3.227609,0.221159 5.867858,0.223759 l 4.800223,0.0047 1.292428,-1.179773 c 0.710931,-0.649065 1.190804,-1.169659 1.066601,-1.156519 z m 43.381328,0.05891 c -0.08872,0.04083 0.288965,0.47674 0.930693,1.060917 l 1.333768,1.213879 4.933549,-0.01964 c 5.047596,-0.0199 8.623543,-0.392946 4.353222,-0.454236 -3.271248,-0.04696 -8.976578,-0.938248 -11.484052,-1.793689 -0.0323,-0.01102 -0.05451,-0.01307 -0.06718,-0.0072 z m -36.099085,8.1194 h 0.724503 c 0.426222,0 1.296797,0.424083 2.113566,1.029394 3.548946,2.630157 7.039309,3.753076 11.656652,3.750676 4.174042,-0.0021 8.059697,-1.28193 11.389485,-3.750676 0.817052,-0.605772 1.686686,-1.029394 2.113049,-1.029394 h 0.724503 l -0.625801,0.661458 c -0.344499,0.363802 -0.832214,0.661458 -1.083138,0.661458 -0.250925,0 -0.644901,0.286352 -0.875916,0.636137 -0.974024,1.47479 -5.671239,3.401821 -9.469188,3.885034 -0.711391,0.09051 -1.437565,0.137927 -2.172477,0.142627 -2.204736,0.01398 -4.485561,-0.355434 -6.655924,-1.087789 -2.377754,-0.802331 -4.701205,-2.102185 -5.254459,-2.939872 -0.231017,-0.349785 -0.624991,-0.636137 -0.875916,-0.636137 -0.250923,0 -0.738117,-0.297656 -1.082621,-0.661458 z" /></g></svg>
