<?xml version="1.0" encoding="UTF-8" standalone="no"?>
<!-- Created with Inkscape (http://www.inkscape.org/) -->

<svg
   width="330"
   height="390"
   viewBox="0 0 87.312497 103.18749"
   version="1.1"
   id="svg5"
   xml:space="preserve"
   inkscape:version="1.2.1 (9c6d41e410, 2022-07-14)"
   sodipodi:docname="Complet.svg"
   xmlns:inkscape="http://www.inkscape.org/namespaces/inkscape"
   xmlns:sodipodi="http://sodipodi.sourceforge.net/DTD/sodipodi-0.dtd"
   xmlns="http://www.w3.org/2000/svg"
   xmlns:svg="http://www.w3.org/2000/svg"><sodipodi:namedview
     id="namedview7"
     pagecolor="#505050"
     bordercolor="#ffffff"
     borderopacity="1"
     inkscape:showpageshadow="0"
     inkscape:pageopacity="0"
     inkscape:pagecheckerboard="1"
     inkscape:deskcolor="#505050"
     inkscape:document-units="px"
     showgrid="true"
     inkscape:zoom="1.4324916"
     inkscape:cx="11.518392"
     inkscape:cy="165.09696"
     inkscape:window-width="1920"
     inkscape:window-height="991"
     inkscape:window-x="-9"
     inkscape:window-y="-9"
     inkscape:window-maximized="1"
     inkscape:current-layer="layer1"><inkscape:grid
       type="xygrid"
       id="grid2188"
       originx="0"
       originy="0"
       enabled="false" /></sodipodi:namedview><defs
     id="defs2" /><g
     inkscape:label="Carac"
     inkscape:groupmode="layer"
     id="layer1"><path
       id="path1582"
       style="fill:#ffffff;stroke-width:0.529167;stroke-dasharray:2.11667, 2.11667;fill-opacity:1"
       d="M 10.989509 1.5699299 L 11.114566 1.9585367 L 4.2229978 8.5886225 L 3.3920408 19.947618 L 5.8854285 24.288438 L 5.8854285 29.459699 L 4.4079994 33.061546 L 5.423958 52.732178 L 3.7615273 69.539937 L 1.1756388 74.250243 L 3.3920408 81.914891 L 11.518676 89.857042 L 22.046715 97.430222 L 29.342393 98.261179 L 43.145684 101.53953 L 43.220098 101.77053 L 43.669683 101.66356 L 44.118751 101.77053 L 44.193165 101.53953 L 57.996456 98.261179 L 65.292134 97.430222 L 75.820173 89.857042 L 83.946808 81.914891 L 86.16321 74.250243 L 83.577322 69.539937 L 81.914891 52.732178 L 82.93085 33.061546 L 81.453421 29.459699 L 81.453421 24.288438 L 83.946808 19.947618 L 83.115851 8.5886225 L 76.224283 1.9585367 L 76.34934 1.5699299 L 75.820173 1.5699299 L 11.518676 1.5699299 L 10.989509 1.5699299 z "
       inkscape:label="Fond" /><path
       id="path27352"
       style="fill:#000000;stroke-width:0.263414"
       d="m 10.225788,0 v 0.64453432 c 0,1.95580108 -1.8270703,3.73827048 -5.3095413,5.18005038 -1.3075036,0.5413211 -1.5076441,0.7183342 -1.5076441,1.3345534 0,0.8734101 0.7026225,5.0276469 1.0943711,6.4696349 0.3647937,1.342786 0.4048396,1.178865 0.6135126,-2.522314 L 5.288552,8.0548697 7.1895006,7.0671357 C 9.6108284,5.809103 11.046467,4.5658084 11.657651,3.1978618 l 0.483425,-1.0807707 h 31.526445 31.52695 l 0.172066,0.6915692 c 0.285762,1.1491189 2.712847,3.343378 4.771314,4.3137795 l 1.871248,0.8822939 0.202282,3.3415513 0.202796,3.341035 0.35745,-1.190864 C 83.152168,12.229471 83.900891,7.9175472 83.902873,6.9834029 83.903696,6.5460859 83.576332,6.2996243 82.39625,5.8488774 79.243145,4.6445132 77.086709,2.6058682 77.086709,0.82905612 V 0 H 43.656253 Z M 84.03961,11.969628 c -0.07731,-0.02266 -0.135706,0.157749 -0.135706,0.442438 0,0.932522 -2.013387,8.494188 -2.908777,10.924521 -0.978821,2.656804 -0.943671,4.377601 0.13315,6.522356 l 0.69185,1.377971 -0.321596,2.971991 c -0.600422,5.553898 -0.305037,34.015892 0.466013,44.893597 l 0.158242,2.225634 0.82501,-1.431725 c 0.798253,-1.385222 0.829281,-1.556599 0.956108,-5.268952 l 0.131098,-3.837227 0.50494,1.4555 c 0.657998,1.896266 0.637494,4.21343 -0.05429,6.153829 -1.381203,3.874188 -5.583986,8.552068 -10.38505,11.558718 -2.469341,1.546407 -4.634587,3.14182 -8.372981,6.170369 -0.383028,0.310294 -1.2618,0.517206 -2.6686,0.627998 l -2.097591,0.165393 1.573198,-1.678269 c 0.865264,-0.922873 1.691185,-1.769295 1.835394,-1.880882 0.144209,-0.111584 1.088138,-0.208867 2.097601,-0.216568 1.705496,-0.013 1.90962,-0.07845 2.88419,-0.926227 l 1.048806,-0.912789 -1.145081,-0.0036 c -1.062887,-0.0037 -1.132464,-0.0468 -0.972489,-0.599568 0.09477,-0.327487 0.306474,-1.309951 0.470116,-2.183249 0.163653,-0.8733 0.322865,-1.624792 0.354379,-1.670001 0.03151,-0.04521 0.366379,0.229198 0.74358,0.609904 0.858872,0.866858 2.238876,1.460813 3.359945,1.44568 l 0.860339,-0.01189 -1.012952,-0.364393 C 71.134893,87.838078 69.49079,85.67229 68.78235,82.897359 68.418488,81.472102 67.37543,79.31506 66.909566,79.024468 c -0.114024,-0.07113 0.07341,0.715018 0.416345,1.747013 1.064819,3.204394 0.770634,8.490557 -0.517734,9.302073 -0.71387,0.449653 -0.76554,0.109466 -0.299081,-1.973919 1.714365,-7.656826 -4.792581,-15.604027 -14.915167,-18.21701 -9.944099,-2.56691 -20.546304,-0.166637 -26.708514,6.046321 -3.984735,4.017553 -5.256424,8.653297 -3.76195,13.716641 0.125974,0.426807 0.06731,0.595431 -0.207405,0.595431 -1.831302,0 -2.264295,-5.989011 -0.732312,-10.12906 l 0.511589,-1.382622 -0.622719,0.714829 c -0.62927,0.722321 -1.718636,3.316546 -1.718636,4.09256 0,0.742431 -1.573496,3.225541 -2.572325,4.05948 -0.532123,0.444293 -1.321348,0.912802 -1.753975,1.040973 l -0.786599,0.233107 0.835257,0.02377 c 1.166743,0.03335 2.168456,-0.399007 3.15919,-1.363497 0.466519,-0.45416 0.886808,-0.774549 0.933582,-0.711727 0.04678,0.06283 0.213529,0.88829 0.37076,1.834364 0.15724,0.946074 0.369134,1.928539 0.471147,2.183251 0.159609,0.398547 0.0265,0.463848 -0.956624,0.467249 l -1.142513,0.0036 1.048795,0.912272 c 0.977335,0.850194 1.174404,0.913307 2.894437,0.922609 l 1.846157,0.0098 1.819519,1.896388 1.820034,1.896389 -2.15597,-0.167983 C 22.051399,96.610733 22.011561,96.594639 20.38808,95.208082 18.169796,93.313531 14.697453,90.825219 12.390476,89.477051 10.147834,88.166489 6.0993977,84.239114 4.5869572,81.907004 2.9179302,79.333428 2.2640942,77.444113 2.2507158,75.156708 2.2419258,73.65539 2.376096,72.88186 2.8017464,71.981072 l 0.5628135,-1.190864 0.02202,3.667695 c 0.021604,3.586909 0.040135,3.702306 0.8475351,5.23122 0.4540919,0.859879 0.8695054,1.519669 0.9228207,1.465838 0.053335,-0.05383 0.2779829,-4.491864 0.4993108,-9.862358 C 6.1559962,59.166497 6.2282295,39.236251 5.7888836,34.692175 5.4719151,31.413892 5.472143,31.406894 6.144798,29.89409 7.3195583,27.252043 7.3009574,26.452043 5.9660727,22.313706 5.317271,20.30231 4.4467845,17.199349 4.0318368,15.41817 3.616889,13.636989 3.2141701,12.178276 3.1366746,12.176375 c -0.077505,-0.0018 -0.4035612,3.003833 -0.7241269,6.678967 l -0.582782,6.682069 0.5254234,1.720136 c 0.2888144,0.946075 0.5259684,1.928538 0.5269594,2.183251 0.00255,0.590712 0.3349748,0.590712 0.8454937,0 0.9051909,-1.047372 0.997918,-1.537174 0.5684423,-2.996801 C 4.0057737,25.457291 3.9383764,24.609754 4.0676809,23.570729 l 0.1833433,-1.473591 0.6232342,1.720136 c 0.8178549,2.257638 0.808708,3.772387 -0.033803,5.478801 C 4.2297575,30.532974 2.5529612,32.37257 1.1271531,33.36951 0.55634232,33.768629 0.55373601,33.798219 0.92794411,35.961603 1.4688071,39.08857 2.0019405,44.810036 2.7531017,55.549864 3.6130935,67.845787 3.614699,67.746773 2.5815413,69.26237 c -1.288645,1.890383 -1.79494223,3.518249 -1.79494223,5.773415 0,2.146505 0.61926033,4.441314 1.70788373,6.329565 0.5552522,0.963113 0.5984396,1.264888 0.4373441,3.053655 l -0.1787252,1.984773 -0.9176973,0.08684 C 0.85120177,86.583753 0,87.181929 0,87.780197 c 0,0.202383 0.28975584,0.659938 0.6437279,1.017197 0.7745288,0.781727 1.4933144,0.895343 0.8045162,0.12715 -0.45409189,-0.50643 -0.4467189,-0.530915 0.2386504,-0.79391 0.3889442,-0.149252 0.7712982,-0.271356 0.8495865,-0.271356 0.078239,0 0.057646,1.190866 -0.045576,2.646365 l -0.187436,2.646363 h 6.4976403 6.4981457 l 2.177485,1.653978 c 1.197662,0.909686 2.18015,1.743287 2.183123,1.852452 0.003,0.109152 -0.504384,0.19848 -1.127153,0.19848 -1.819757,0 -5.947125,1.44773 -5.947125,2.086078 0,0.338468 5.89706,2.553206 8.128197,3.052626 1.081577,0.2421 3.146396,0.60165 4.588496,0.79908 v 5.1e-4 c 1.44209,0.19743 3.68391,0.36191 4.981791,0.36491 l 2.359797,0.006 -1.638752,-0.35922 c -0.901138,-0.19757 -2.212714,-0.67463 -2.914405,-1.06009 -1.292044,-0.70975 -3.968334,-2.916849 -3.968334,-3.2723 0,-0.365363 3.648749,0.20029 4.904979,0.760313 0.691067,0.308071 1.610598,0.905797 2.043314,1.328357 0.746415,0.72891 1.01527,0.79575 5.243987,1.30767 2.451484,0.29677 5.755289,0.53961 7.341598,0.53961 1.586309,0 4.889599,-0.24284 7.341073,-0.53961 4.228727,-0.51192 4.497573,-0.57876 5.243997,-1.30767 1.114904,-1.088749 3.003476,-1.856773 5.129795,-2.086079 1.006332,-0.108522 1.797529,-0.122335 1.758583,-0.03101 -0.03898,0.09132 -0.746375,0.779427 -1.571662,1.528897 -1.814822,1.648102 -3.165176,2.373312 -5.287016,2.839152 l -1.602383,0.35199 2.018223,0.0207 c 2.250084,0.0234 7.268819,-0.58146 9.979457,-1.20327 1.652576,-0.3791 7.705252,-2.563213 8.040108,-2.901181 0.503096,-0.507782 -3.157416,-1.965584 -5.420156,-2.158443 -0.901316,-0.07681 -1.634491,-0.212632 -1.629536,-0.30185 0.0053,-0.08924 0.961033,-0.906589 2.123723,-1.816275 l 2.113982,-1.653978 h 6.541165 6.540649 l -0.182312,-2.67686 -0.182818,-2.676858 0.629378,0.195893 c 0.871021,0.270778 0.91631,0.346834 0.552051,0.935531 -0.176099,0.284481 -0.218593,0.517384 -0.09422,0.517384 0.392739,0 1.614166,-1.280313 1.614166,-1.692225 0,-0.578581 -1.043286,-1.218774 -1.986472,-1.218774 h -0.820907 l -0.164385,-1.959963 c -0.159282,-1.901841 -0.131921,-2.029108 0.926398,-4.300342 0.933751,-2.00388 1.107402,-2.653292 1.207047,-4.516392 0.136974,-2.561418 -0.305285,-4.225459 -1.677163,-6.311474 -1.118542,-1.70084 -1.120266,-1.80507 -0.240177,-14.427335 0.837298,-12.008542 1.418108,-17.841246 2.009006,-20.183175 0.232507,-0.921473 0.198149,-1.062514 -0.350285,-1.446197 -1.508536,-1.055374 -3.227509,-2.937214 -3.790115,-4.148899 -0.783685,-1.68822 -0.781287,-3.470796 0.0071,-5.548577 l 0.599173,-1.579031 0.17924,1.538715 c 0.13089,1.123968 0.05985,1.920111 -0.262712,2.952866 l -0.441437,1.413635 0.728726,0.964475 c 0.400806,0.530367 0.813554,0.864729 0.917192,0.743256 0.103637,-0.121473 0.434589,-1.176465 0.735384,-2.344513 l 0.546928,-2.12381 -0.595576,-6.547684 c -0.327502,-3.601311 -0.67206,-6.624854 -0.765609,-6.719282 -0.01168,-0.0118 -0.02327,-0.0195 -0.03431,-0.02274 z M 3.596544,33.446524 c 0.2505622,0.249695 0.6748747,6.257267 0.842927,11.938615 0.1119027,3.784297 0.170827,6.921268 0.1305928,6.970998 C 4.4691214,52.480997 4.2904359,50.997904 3.6667062,44.855866 3.3710936,41.944869 2.9407656,38.404018 2.7105981,36.98707 L 2.2922017,34.410483 2.9159512,33.900334 C 3.2590422,33.6196 3.5651296,33.415237 3.596544,33.446524 Z m 80.246414,0.08994 c 0.104986,0.0081 0.261354,0.123548 0.540794,0.352503 l 0.610946,0.500846 -0.40816,2.398784 c -0.224519,1.31924 -0.712869,5.33852 -1.08567,8.931995 -0.372801,3.593475 -0.742649,6.595796 -0.821928,6.671731 -0.356638,0.341682 0.538098,-17.498 0.931016,-18.562795 0.07441,-0.201671 0.128026,-0.301158 0.233002,-0.293064 z M 43.656253,71.325707 c 4.351005,0 4.924353,0.05714 7.341588,0.732919 3.059318,0.855285 6.531562,2.495704 8.390394,3.96386 1.985539,1.568231 3.952914,4.371823 4.61768,6.580762 1.216184,4.041221 0.11222,7.877061 -3.281081,11.400556 -1.426026,1.480732 -2.207522,2.021277 -4.670947,3.230428 -3.244376,1.592489 -5.967232,2.405072 -9.382336,2.800398 -3.186977,0.36891 -5.263509,0.26588 -8.783698,-0.437285 -8.705905,-1.739038 -14.755508,-7.110079 -15.037554,-13.350694 -0.06067,-1.342287 0.05158,-2.536598 0.329287,-3.500747 0.566747,-1.967662 2.746749,-5.190379 4.425636,-6.543031 1.865927,-1.503353 5.552542,-3.256359 8.709433,-4.141663 2.420268,-0.678726 2.985123,-0.735503 7.341598,-0.735503 z M 4.9818007,85.109025 5.899498,86.006824 c 0.5047414,0.493753 0.9176972,0.933695 0.9176972,0.977914 0,0.04425 -0.029472,0.06153 -0.065544,0.03825 C 6.7155992,86.999698 6.3026232,86.932828 5.8339439,86.87413 5.0764304,86.77924 4.9818007,86.67511 4.9818007,85.938082 Z m 77.1307483,0.169014 c 0.163652,-0.01867 0.218157,0.216871 0.218157,0.69984 0,0.67356 -0.106889,0.777527 -0.895172,0.870405 l -0.895162,0.105441 0.698519,-0.851281 c 0.437265,-0.532864 0.709996,-0.80573 0.873658,-0.824405 z m 0.200745,2.840707 c 0.06566,0.0011 0.111387,0.01199 0.133655,0.03463 0.05555,0.05647 0.135072,0.757833 0.177189,1.558357 l 0.07682,1.4555 -3.745054,0.07339 c -2.786062,0.05472 -3.696733,-0.0046 -3.557103,-0.232591 0.386655,-0.631449 5.929525,-2.905888 6.914491,-2.889291 z m -77.2183221,0.0052 c 1.0974233,0 6.4451671,2.274339 6.8315351,2.905314 0.109851,0.1794 -1.0714,0.270323 -3.505383,0.270323 -2.0189459,0 -3.7150368,-0.08932 -3.7696404,-0.198478 -0.2360838,-0.472291 0.1370342,-2.977191 0.4434883,-2.977191 z m 16.4494491,9.990023 1.157874,1.14641 c 0.636781,0.630756 1.157883,1.241541 1.157883,1.356781 0,0.5797 -4.103069,-0.24233 -6.948293,-1.391928 l -0.786599,-0.317874 0.722581,-0.208812 c 0.397546,-0.114893 1.617297,-0.293589 2.710083,-0.396949 z m 44.223665,0 1.986471,0.187628 c 1.092765,0.10336 2.312527,0.282056 2.710073,0.396949 l 0.722591,0.208812 -0.786599,0.317364 c -0.432627,0.174595 -1.773072,0.606671 -2.978939,0.959828 -2.17913,0.63819 -3.969355,0.83332 -3.969355,0.43261 0,-0.11524 0.521103,-0.726025 1.157874,-1.356781 z"
       inkscape:label="Bordure" /></g></svg>
