<?xml version="1.0" encoding="UTF-8" standalone="no"?>
<!-- Created with Inkscape (http://www.inkscape.org/) -->

<svg
   width="700"
   height="175"
   viewBox="0 0 185.20833 46.302081"
   version="1.1"
   id="svg5"
   xml:space="preserve"
   inkscape:version="1.2.1 (9c6d41e410, 2022-07-14)"
   sodipodi:docname="Complet.svg"
   xmlns:inkscape="http://www.inkscape.org/namespaces/inkscape"
   xmlns:sodipodi="http://sodipodi.sourceforge.net/DTD/sodipodi-0.dtd"
   xmlns="http://www.w3.org/2000/svg"
   xmlns:svg="http://www.w3.org/2000/svg"><sodipodi:namedview
     id="namedview7"
     pagecolor="#505050"
     bordercolor="#ffffff"
     borderopacity="1"
     inkscape:showpageshadow="0"
     inkscape:pageopacity="0"
     inkscape:pagecheckerboard="1"
     inkscape:deskcolor="#505050"
     inkscape:document-units="px"
     showgrid="true"
     inkscape:zoom="0.71624578"
     inkscape:cx="554.97709"
     inkscape:cy="143.1073"
     inkscape:window-width="1920"
     inkscape:window-height="991"
     inkscape:window-x="-9"
     inkscape:window-y="-9"
     inkscape:window-maximized="1"
     inkscape:current-layer="layer1"><inkscape:grid
       type="xygrid"
       id="grid2188"
       originx="0"
       originy="0" /></sodipodi:namedview><defs
     id="defs2" /><g
     inkscape:label="Calque 1"
     inkscape:groupmode="layer"
     id="layer1"><path
       id="path3052"
       style="fill:#000000;stroke-width:0.264776"
       d="M 0 0 L 0 23.151041 L 0 46.302082 L 5.7324664 46.302082 C 11.179524 46.302082 11.481483 46.275453 11.794112 45.769815 C 11.975074 45.477132 12.60223 44.887386 13.187308 44.4593 L 14.250809 43.681053 L 16.063618 44.303754 C 17.060608 44.646261 18.803688 45.072924 19.937284 45.252017 C 21.070878 45.431121 22.211685 45.764561 22.472529 45.993057 C 22.903058 46.370178 23.024488 46.367813 23.789762 45.962568 C 24.253416 45.717045 25.426415 45.392347 26.396321 45.241165 C 27.950503 44.99889 30.39553 44.324175 31.643545 43.793191 C 31.93542 43.669011 32.522636 44.032547 33.524568 44.957461 L 34.981326 46.302082 L 40.54326 46.302082 L 46.104678 46.302082 L 46.104678 44.040204 L 46.104678 41.778327 L 111.94613 41.778327 L 177.78811 41.778327 L 179.22161 39.715921 C 181.11165 36.997208 182.79454 35.145049 184.11744 34.327619 L 185.19437 33.662027 L 185.20109 23.102465 L 185.20833 12.542903 L 184.6311 12.357902 C 183.73405 12.070327 180.46376 8.5438052 179.14875 6.4461179 L 177.96329 4.5547606 L 112.03398 4.5392577 L 46.104678 4.5237547 L 46.104678 2.2618774 L 46.104678 0 L 40.489517 0 L 34.874356 0 L 34.10076 0.83199053 C 33.675175 1.2896069 33.002905 1.8680148 32.606794 2.1171834 C 31.918979 2.5498482 31.805719 2.5424803 30.086535 1.960087 C 29.096467 1.6246898 27.405572 1.2125566 26.329141 1.0438639 C 25.252714 0.87517019 24.137763 0.57114696 23.851257 0.36845295 C 23.198748 -0.093176439 22.79151 -0.097631829 22.346439 0.35191649 C 22.154785 0.54549945 21.05222 0.85812882 19.896459 1.0464477 C 18.740699 1.2347666 16.989158 1.6643214 16.004191 2.0009114 L 14.213085 2.6127603 L 12.902571 1.5663126 C 12.181712 0.99077451 11.592057 0.40288615 11.592057 0.25993245 C 11.592057 0.098660087 9.3923939 0 5.7960284 0 L 0 0 z M 21.782649 2.0469034 C 22.083213 2.0758307 22.27479 2.1680869 22.460644 2.3337076 C 22.854046 2.6842778 23.030239 2.6933616 23.646101 2.3962361 C 24.043987 2.2042721 24.784329 2.0744269 25.291479 2.1073648 C 26.761957 2.2028634 29.770275 2.9467484 29.770275 3.2147907 C 29.770275 3.3573543 26.965151 3.4592203 23.052339 3.4592203 C 19.245459 3.4592203 16.334403 3.355709 16.334403 3.2199584 C 16.334403 2.9453767 18.18855 2.45848 20.449397 2.139921 C 21.072358 2.052144 21.482085 2.0179762 21.782649 2.0469034 z M 8.895064 2.6623697 C 9.5212339 2.6612886 10.141694 2.9788549 11.176578 3.830257 C 11.958266 4.4733541 13.290219 5.2748319 14.136604 5.6115436 C 15.555668 6.1760788 16.164021 6.2321277 21.947497 6.329846 C 25.957282 6.397598 28.844475 6.3259109 29.953209 6.1308917 C 31.98322 5.7738248 33.86345 4.8744847 35.278466 3.5832437 C 36.394335 2.5649832 37.13279 2.4486419 39.180036 2.9693277 C 40.727581 3.3629233 42.19649 4.8183916 42.773615 6.5288002 C 43.155303 7.6602442 43.206664 9.6229552 43.206664 23.164477 C 43.206664 39.594341 43.202341 39.6489 41.872378 41.535448 C 41.133375 42.583717 39.509042 43.386262 37.756867 43.568915 C 36.387711 43.711651 36.284087 43.67711 35.353396 42.765864 C 34.13523 41.57315 32.07492 40.522011 30.283939 40.178941 C 28.486708 39.835068 17.863322 39.838159 16.060001 40.183592 C 14.162405 40.547089 12.140836 41.519029 10.86962 42.679047 C 10.030943 43.444359 9.606802 43.638477 8.7937782 43.629377 C 6.2130461 43.599879 4.0422314 41.892487 3.2979898 39.306643 C 2.9304819 38.029749 2.8873498 35.910437 2.9538248 22.448758 C 3.0291896 7.1854103 3.0347798 7.0420517 3.6070149 5.9619098 C 4.7051684 3.8890504 6.6648603 2.6661916 8.895064 2.6623697 z M 46.104678 6.9184405 L 106.41211 6.9184405 L 166.72005 6.9184405 L 168.91682 7.866703 C 170.12507 8.3880244 171.22604 8.9267607 171.36369 9.0640459 C 171.51954 9.2194671 147.93362 9.3136431 108.8595 9.3136431 L 46.104678 9.3136431 L 46.104678 8.1163002 L 46.104678 6.9184405 z M 176.73133 6.9184405 L 177.92453 8.607743 C 179.2094 10.426414 181.53711 12.969716 182.52425 13.633793 L 182.52477 13.634309 C 183.02267 13.969263 183.11875 14.239037 183.05135 15.109672 L 182.96919 16.17524 L 181.25663 14.398604 C 179.07943 12.139909 176.89957 10.577124 173.08969 8.544181 L 170.0599 6.9277423 L 173.39561 6.9230914 L 176.73133 6.9184405 z M 174.1072 10.377144 L 176.45744 11.965161 C 178.99445 13.679205 181.72565 16.41566 182.57283 18.092952 C 183.0319 19.001935 183.10045 19.660982 183.10045 23.151041 C 183.10045 26.64109 183.03194 27.300157 182.57283 28.20913 C 181.72575 29.886252 178.99476 32.622855 176.45847 34.336404 L 174.10875 35.923904 L 111.81074 35.923904 C 62.21542 35.923904 49.487152 35.856427 49.386648 35.591625 C 49.317228 35.408669 49.29101 29.690508 49.32877 22.884907 L 49.3975 10.510986 L 111.75235 10.443807 L 174.1072 10.377144 z M 46.104678 10.378178 L 47.15836 10.378178 L 48.212043 10.378178 L 48.212043 23.151041 L 48.212043 35.923904 L 47.15836 35.923904 L 46.104678 35.923904 L 46.104678 23.151041 L 46.104678 10.378178 z M 183.10045 29.994034 L 183.08133 31.162955 C 183.06318 32.24551 182.96061 32.411104 181.69846 33.410363 C 180.94892 34.003793 179.51298 35.590447 178.50693 36.936245 L 176.67758 39.383124 L 173.29639 39.383124 L 169.91469 39.383124 L 172.62202 37.986311 C 176.47121 35.99949 178.94447 34.260235 181.16723 31.978409 L 183.10045 29.994034 z M 46.104678 36.988439 L 108.8595 36.988439 C 147.84404 36.988439 171.51917 37.082775 171.36369 37.237519 C 171.22604 37.374532 170.10945 37.913262 168.88219 38.434862 L 166.6508 39.383124 L 106.37748 39.383124 L 46.104678 39.383124 L 46.104678 38.185782 L 46.104678 36.988439 z M 23.052339 42.842861 C 26.965151 42.842861 29.770275 42.944726 29.770275 43.087291 C 29.770275 43.387758 26.454666 44.173013 25.186059 44.173013 C 24.678106 44.173013 23.957603 44.032538 23.584606 43.860887 C 23.065848 43.622143 22.833432 43.622143 22.59707 43.860887 C 22.42712 44.032538 21.689636 44.163062 20.957893 44.150792 C 19.426892 44.125186 16.334403 43.400817 16.334403 43.067654 C 16.334403 42.944037 19.357396 42.842861 23.052339 42.842861 z " /></g></svg>
