<?xml version="1.0" encoding="UTF-8" standalone="no"?>
<!-- Created with Inkscape (http://www.inkscape.org/) -->

<svg
   width="700"
   height="210"
   viewBox="0 0 185.20833 55.562497"
   version="1.1"
   id="svg5"
   xml:space="preserve"
   inkscape:version="1.2.1 (9c6d41e410, 2022-07-14)"
   sodipodi:docname="Complet.svg"
   xmlns:inkscape="http://www.inkscape.org/namespaces/inkscape"
   xmlns:sodipodi="http://sodipodi.sourceforge.net/DTD/sodipodi-0.dtd"
   xmlns="http://www.w3.org/2000/svg"
   xmlns:svg="http://www.w3.org/2000/svg"><sodipodi:namedview
     id="namedview7"
     pagecolor="#505050"
     bordercolor="#ffffff"
     borderopacity="1"
     inkscape:showpageshadow="0"
     inkscape:pageopacity="0"
     inkscape:pagecheckerboard="1"
     inkscape:deskcolor="#505050"
     inkscape:document-units="px"
     showgrid="true"
     inkscape:zoom="1.0129245"
     inkscape:cx="305.55091"
     inkscape:cy="-49.855641"
     inkscape:window-width="1920"
     inkscape:window-height="991"
     inkscape:window-x="-9"
     inkscape:window-y="-9"
     inkscape:window-maximized="1"
     inkscape:current-layer="layer1"><inkscape:grid
       type="xygrid"
       id="grid2188"
       originx="0"
       originy="0" /></sodipodi:namedview><defs
     id="defs2" /><g
     inkscape:label="Calque 1"
     inkscape:groupmode="layer"
     id="layer1"><path
       id="path3115"
       style="fill:#000000;stroke-width:0.260773"
       d="M 25.062035 0.0015502929 C 24.651523 0.071012933 24.588789 0.76342638 24.923026 1.5409912 C 25.091281 1.9324226 24.962013 1.9949243 23.974246 1.9988443 C 22.450939 2.0048337 19.636369 2.6090497 17.056839 3.4835082 L 14.954125 4.1961262 L 19.154902 4.3547728 C 24.57667 4.5592125 27.214261 4.9696368 27.663427 5.6792397 C 27.976678 6.1741265 27.951145 6.1954642 27.251566 6.0213377 C 25.892722 5.6831192 22.075567 5.1435472 19.811193 4.9697223 C 15.661084 4.6511383 10.540569 5.5271942 7.3406369 7.1034421 C 5.663898 7.9293833 3.3707348 9.6163839 3.0029174 10.294462 C 2.8018372 10.665156 3.0881111 10.539228 3.9796019 9.863997 C 5.3051949 8.8599717 7.8509795 7.6082785 9.1710161 7.3116981 C 9.8533389 7.1583975 9.6834418 7.3932397 7.8181272 9.1823849 C 4.2924315 12.564111 1.9046191 16.631359 0.48007404 21.68033 C 0.1084734 22.997383 0.0037705789 24.322695 0 27.767296 C -0.0055589318 32.850483 0.36098918 34.558687 2.3430094 38.692211 C 3.8451857 41.825018 4.7551412 43.092798 7.5519935 45.949132 C 9.8751449 48.321693 9.880209 48.329869 8.8749102 48.060631 C 7.4054386 47.66708 4.5442101 46.135066 3.2297769 45.037559 L 2.0897948 44.08568 L 2.8339354 44.972964 C 4.9563347 47.504757 8.2472921 49.204842 12.680362 50.059992 C 16.090825 50.717877 22.139704 50.482553 27.162165 49.496719 C 28.067104 49.319092 28.074097 49.324345 27.613817 49.8383 C 27.033122 50.486729 23.867364 50.969123 18.761128 51.187055 L 15.216642 51.338467 L 16.792256 51.903807 C 18.989478 52.693032 21.211391 53.21217 23.289534 53.421543 C 24.264194 53.519746 25.062035 53.652596 25.062035 53.716616 C 25.062035 53.780612 24.934878 54.067609 24.779365 54.354303 C 24.623952 54.640795 24.561305 55.040962 24.639839 55.243654 C 24.918543 55.959562 25.319563 55.58209 27.069665 52.956456 C 29.129689 49.865851 32.692907 46.233012 34.705891 45.170885 C 36.167883 44.399487 40.606851 43.178241 41.949376 43.178241 L 42.754495 43.178241 L 41.850157 44.110484 C 39.640088 46.386625 35.931508 48.47494 32.228006 49.529792 C 29.774362 50.228657 29.339288 50.557701 28.467512 52.373545 C 27.83837 53.68402 27.941164 53.710511 31.161921 53.061359 C 34.594081 52.36959 37.664924 51.072612 40.68072 49.040932 L 43.230951 47.322691 L 110.60978 47.320624 L 177.98861 47.319074 L 179.01129 45.752761 C 180.32544 43.740465 183.42541 40.464222 184.43008 40.025462 L 185.20833 39.685432 L 185.20833 27.762645 L 185.20833 15.840376 L 184.26937 15.341699 C 183.05612 14.697056 180.81646 12.301806 179.15443 9.8717485 L 177.84133 7.9519691 L 110.262 7.9519691 C 66.276767 7.9519691 42.626782 7.8629086 42.522984 7.6972043 C 42.23454 7.2367375 38.618988 5.0354486 36.726956 4.1682209 C 34.53644 3.1641806 31.66478 2.3423416 29.504141 2.1011637 L 27.953332 1.9280476 L 28.231867 2.7150797 C 28.765094 4.2242254 30.045329 5.3389262 31.732946 5.7634723 C 34.071268 6.3517137 36.626257 7.4866367 38.626065 8.8253008 C 40.836141 10.304715 42.820211 12.016225 42.58913 12.244213 C 42.214042 12.614284 36.991809 11.326572 35.072277 10.39058 C 32.516559 9.1443779 29.491648 6.1510872 27.162165 2.5631509 C 26.091652 0.91432026 25.309076 -0.040252215 25.062035 0.0015502929 z M 17.965311 6.3944415 L 20.528979 6.6636757 C 25.915515 7.2289884 30.031145 8.3231 31.80891 9.6619422 C 34.690191 11.831846 39.080111 13.39143 42.305427 13.39143 L 43.975092 13.39143 L 45.116624 15.139644 C 47.857335 19.337264 48.717682 22.049809 48.876085 26.990083 C 48.980215 30.237734 48.924278 30.877211 48.339167 33.111673 C 47.626988 35.831371 46.292796 38.740623 44.893382 40.625426 C 44.00457 41.822534 43.992305 41.828381 42.079084 42.003119 C 38.212193 42.356297 34.701835 43.632563 31.999079 45.668012 C 30.582412 46.734916 28.855652 47.347406 25.062035 48.12781 C 23.69029 48.410002 21.445455 48.701532 20.073709 48.775832 C 17.786503 48.899683 17.464175 48.856249 16.185575 48.251317 C 12.118574 46.32711 7.7757244 42.304286 5.8725096 38.697895 C 3.6600049 34.505427 2.8425641 30.899972 3.0845661 26.402005 C 3.2648423 23.05131 3.886447 20.778754 5.5391966 17.428393 C 7.5556413 13.340769 11.522913 9.5362539 16.091524 7.3085976 L 17.965311 6.3944415 z M 55.904596 10.283093 L 111.27021 10.283093 L 166.63582 10.283093 L 169.14057 11.338842 C 175.44215 13.995148 180.13782 17.358053 182.29533 20.759456 L 183.1082 22.040514 L 183.1082 27.595214 C 183.1082 32.830851 183.07431 33.218001 182.51753 34.337954 C 181.69658 35.989291 178.93933 38.661502 176.24712 40.415103 C 174.07973 41.826842 169.46753 44.127935 167.27454 44.891315 C 166.40282 45.194767 157.55204 45.247635 111.07487 45.228245 L 55.909764 45.204991 L 53.940892 44.33321 C 52.857935 43.853705 51.007525 43.208295 49.828998 42.898672 L 47.685976 42.335399 L 48.450271 41.110667 C 52.121179 35.224503 53.184833 27.626373 51.285757 20.859191 C 50.713336 18.819417 49.07291 15.167352 48.161916 13.905094 C 47.743043 13.324712 47.689702 13.104768 47.949526 13.029178 C 48.140277 12.973679 49.076285 12.733258 50.029503 12.494327 C 50.982723 12.255397 52.69439 11.659934 53.833405 11.171411 L 55.904596 10.283093 z M 169.90797 10.283093 L 173.34755 10.283093 L 176.78765 10.283093 L 177.89766 11.902115 C 178.5082 12.792504 179.93771 14.42147 181.07421 15.522049 C 182.96833 17.356311 183.13359 17.598828 183.05859 18.433499 L 182.97694 19.344038 L 181.19979 17.562235 C 179.01327 15.369947 176.25461 13.464998 172.6525 11.659236 L 169.90797 10.283093 z M 49.214049 10.304797 C 49.867193 10.304797 50.51478 10.31533 50.998952 10.33632 L 52.759568 10.412801 L 50.527663 11.100614 C 46.912893 12.214788 46.982477 12.212115 46.221466 11.25461 L 45.552257 10.412801 L 47.395038 10.33632 C 47.901845 10.31533 48.560904 10.304797 49.214049 10.304797 z M 183.1082 35.916669 L 183.1082 36.992056 C 183.1082 37.980309 182.97519 38.187218 181.46489 39.552623 C 180.56109 40.36971 179.11357 41.985486 178.24855 43.143101 L 178.24855 43.144135 L 176.67603 45.248916 L 173.2628 45.243748 L 169.85009 45.239097 L 172.74707 43.744615 C 176.65417 41.729646 179.3483 39.849184 181.39926 37.704157 L 183.1082 35.916669 z M 47.062759 43.390115 L 49.206297 43.938402 C 50.385163 44.239888 51.726124 44.649223 52.18596 44.847907 C 52.953499 45.179559 52.715208 45.210923 49.280711 45.230312 C 47.223094 45.241932 45.539854 45.156464 45.539854 45.04066 C 45.539854 44.924846 45.882132 44.505946 46.301048 44.109967 L 47.062759 43.390115 z " /></g></svg>
